<svg height="511pt" viewBox="-15 0 511 511.99872" width="511pt" xmlns="http://www.w3.org/2000/svg"><path d="m479.246094 133.148438c-2.78125-8.046876-8.53125-14.53125-16.1875-18.257813l-229.644532-111.683594c-15.808593-7.6875-34.917968-1.082031-42.605468 14.722657l-10.722656 22.035156-62.730469-12.273438c-17.296875-3.382812-34.128907 7.933594-37.515625 25.230469l-7.96875 40.695313h-39.492188c-17.578125 0-31.878906 14.300781-31.878906 31.882812v354.617188c0 17.582031 14.300781 31.882812 31.878906 31.882812h255.367188c17.578125 0 31.882812-14.300781 31.882812-31.882812v-.070313c1.238282-.925781 2.285156-2.152344 3.007813-3.640625l155.144531-318.898438c3.726562-7.65625 4.246094-16.308593 1.464844-24.359374zm-270.453125-106.46875c2.863281-5.890626 9.988281-8.347657 15.875-5.484376l94.597656 46.007813-118.871094-23.261719zm-109.328125 30.085937c1.269531-6.476563 7.566406-10.714844 14.050781-9.445313l70.105469 13.71875c.125.027344.25.050782.375.074219l179.953125 35.210938c3.140625.613281 5.851562 2.414062 7.632812 5.066406 1.785157 2.652344 2.429688 5.839844 1.816407 8.976563l-53.773438 274.695312v-259.5625c0-17.578125-14.300781-31.882812-31.878906-31.882812h-195.496094zm200.164062 423.355469c0 6.550781-5.332031 11.878906-11.882812 11.878906h-255.367188c-6.550781 0-11.878906-5.332031-11.878906-11.878906v-354.621094c0-6.550781 5.328125-11.878906 11.878906-11.878906h255.367188c6.550781 0 11.882812 5.328125 11.882812 11.878906zm160.167969-331.363282-123.039063 252.910157 56.265626-287.457031c.722656-3.695313.792968-7.410157.238281-11.023438l61.050781 29.691406c2.851562 1.386719 4.992188 3.804688 6.03125 6.804688 1.035156 2.996094.84375 6.21875-.546875 9.074218zm0 0"/><path d="m158.671875 369.257812c-1.964844 0-3.929687-.578124-5.628906-1.734374-.804688-.546876-19.878907-13.605469-39.238281-31.824219-27.308594-25.710938-41.15625-48.507813-41.15625-67.757813 0-27.746094 22.574218-50.316406 50.324218-50.316406 14.027344 0 27.003906 5.691406 36.328125 15.453125 9.289063-9.34375 22.015625-14.785156 35.648438-14.785156 27.75 0 50.324219 22.574219 50.324219 50.316406 0 19-13.960938 41.613281-41.492188 67.214844-19.492188 18.125-38.699219 31.167969-39.503906 31.714843-1.695313 1.148438-3.648438 1.71875-5.605469 1.71875zm-35.703125-131.636718c-16.71875 0-30.320312 13.601562-30.320312 30.316406 0 23.308594 38.40625 59.121094 66.046874 79.113281 27.847657-19.988281 66.578126-55.636719 66.578126-78.441406 0-16.714844-13.605469-30.316406-30.324219-30.316406-11.375 0-21.695313 6.285156-26.9375 16.402343-1.734375 3.347657-5.226563 5.457032-8.972657 5.398438-3.773437-.035156-7.199218-2.183594-8.871093-5.566406-5.160157-10.425782-15.578125-16.90625-27.199219-16.90625zm0 0"/><path d="m49.664062 170.902344c-5.523437 0-10-4.476563-10-10v-15.058594c0-5.523438 4.476563-10 10-10 5.519532 0 10 4.476562 10 10v15.058594c0 5.523437-4.480468 10-10 10zm0 0"/><path d="m270.464844 467.375c-5.523438 0-10-4.476562-10-10v-15.058594c0-5.523437 4.476562-10 10-10 5.519531 0 10 4.476563 10 10v15.058594c0 5.523438-4.480469 10-10 10zm0 0"/><path d="m237.59375 409.433594c-.648438 0-1.300781-.070313-1.949219-.199219-.640625-.128906-1.269531-.320313-1.867187-.570313-.601563-.25-1.191406-.558593-1.730469-.917968-.550781-.363282-1.0625-.78125-1.519531-1.242188-.460938-.460937-.882813-.96875-1.242188-1.519531-.359375-.539063-.667968-1.121094-.917968-1.730469-.25-.601562-.441407-1.230468-.570313-1.871094-.132813-.636718-.203125-1.296874-.203125-1.949218 0-.648438.070312-1.308594.203125-1.960938.128906-.628906.320313-1.257812.570313-1.867187.25-.601563.558593-1.179688.917968-1.722657.359375-.546874.78125-1.058593 1.242188-1.519531.457031-.460937.96875-.878906 1.519531-1.25.539063-.359375 1.128906-.660156 1.730469-.910156.597656-.25 1.226562-.449219 1.867187-.578125 1.292969-.261719 2.621094-.261719 3.910157 0 .640624.128906 1.269531.328125 1.871093.578125.597657.25 1.179688.550781 1.730469.910156.539062.371094 1.046875.789063 1.519531 1.25.457031.460938.867188.972657 1.238281 1.519531.359376.542969.671876 1.121094.921876 1.722657.25.609375.4375 1.238281.570312 1.867187.128906.652344.1875 1.3125.1875 1.960938 0 .652344-.058594 1.3125-.1875 1.949218-.132812.640626-.320312 1.269532-.570312 1.871094-.25.609375-.5625 1.191406-.921876 1.730469-.371093.550781-.78125 1.058594-1.238281 1.519531-.472656.460938-.980469.878906-1.519531 1.242188-.550781.359375-1.132812.667968-1.730469.917968-.601562.25-1.230469.441407-1.871093.570313-.648438.128906-1.300782.199219-1.960938.199219zm0 0"/><path d="m199.445312 409.433594h-119.125c-5.523437 0-10-4.476563-10-10 0-5.523438 4.476563-10 10-10h119.125c5.523438 0 10 4.476562 10 10 0 5.523437-4.476562 10-10 10zm0 0"/></svg>