<svg height="512pt" viewBox="-40 0 512 512.00002" width="512pt" xmlns="http://www.w3.org/2000/svg"><path d="m402.257812 231.082031-66.230468-94.730469c-1.871094-2.675781-4.929688-4.269531-8.195313-4.269531h-221.484375c-3.265625 0-6.324218 1.59375-8.195312 4.269531l-66.230469 94.730469c-.027344.039063-3.851563 6.167969-.105469 11.300781l176.886719 265.0625c.027344.039063 3.617187 4.550782 8.085937 4.550782.023438 0 .316407.003906.320313.003906 4.753906 0 8.34375-4.515625 8.367187-4.554688l90.105469-135.015624c3.0625-4.59375 1.824219-10.804688-2.769531-13.871094-4.59375-3.0625-10.800781-1.828125-13.867188 2.769531l-52.628906 78.859375 39.859375-131.214844 18.882813-62.164062h70.308594l-32.566407 48.804687c-3.066406 4.59375-1.828125 10.800781 2.765625 13.867188 4.59375 3.066406 10.804688 1.828125 13.867188-2.765625l42.929687-64.332032c.070313-.101562 3.582031-5.976562-.105469-11.300781zm-185.167968 236.511719-67.066406-220.785156h134.132812zm-58.910156-240.78125 58.910156-69.292969 58.910156 69.292969zm-46.621094-74.730469h83.902344l-63.53125 74.730469h-72.617188zm17.5625 94.726563 58.742187 193.378906-129.050781-193.378906zm173.128906-19.996094-63.53125-74.730469h83.902344l52.246094 74.730469zm0 0"/><path d="m330.660156 343.15625c-2.558594 0-5.117187-.976562-7.070312-2.929688l-.535156-.535156c-3.90625-3.90625-3.90625-10.238281 0-14.144531 3.902343-3.902344 10.234374-3.902344 14.140624 0l.539063.539063c3.902344 3.90625 3.902344 10.238281 0 14.140624-1.953125 1.953126-4.515625 2.929688-7.074219 2.929688zm0 0"/><path d="m217.089844 113.074219c-5.441406 0-10.210938-3.734375-11.59375-9.078125-4.550782-17.570313-18.292969-31.3125-35.867188-35.863282-5.34375-1.386718-9.074218-6.152343-9.074218-11.597656 0-5.441406 3.730468-10.207031 9.074218-11.59375 17.574219-4.550781 31.316406-18.292968 35.867188-35.863281 1.382812-5.347656 6.152344-9.078125 11.59375-9.078125s10.210937 3.730469 11.59375 9.074219c4.554687 17.574219 18.296875 31.316406 35.863281 35.867187h.003906c5.34375 1.382813 9.074219 6.152344 9.074219 11.59375s-3.730469 10.210938-9.074219 11.597656c-17.570312 4.550782-31.3125 18.292969-35.863281 35.863282-1.386719 5.34375-6.15625 9.078125-11.597656 9.078125zm-23.941406-56.539063c9.8125 5.902344 18.042968 14.128906 23.941406 23.941406 5.898437-9.8125 14.128906-18.039062 23.941406-23.941406-9.8125-5.898437-18.042969-14.125-23.941406-23.9375-5.898438 9.8125-14.128906 18.039063-23.941406 23.9375zm0 0"/><path d="m379.695312 157.089844c-5.351562 0-10.035156-3.664063-11.394531-8.910156-3.984375-15.378907-16.011719-27.40625-31.386719-31.390626-5.25-1.355468-8.914062-6.042968-8.914062-11.394531 0-5.351562 3.664062-10.035156 8.910156-11.394531 15.378906-3.984375 27.40625-16.011719 31.390625-31.390625 1.359375-5.246094 6.042969-8.910156 11.394531-8.910156 5.351563 0 10.039063 3.664062 11.398438 8.910156 3.980469 15.378906 16.007812 27.40625 31.386719 31.390625 5.246093 1.359375 8.914062 6.042969 8.914062 11.394531 0 5.347657-3.664062 10.035157-8.910156 11.394531-15.382813 3.984376-27.410156 16.011719-31.390625 31.390626-1.363281 5.246093-6.046875 8.910156-11.398438 8.910156zm-19.476562-51.695313c7.828125 4.996094 14.480469 11.648438 19.476562 19.476563 4.996094-7.828125 11.648438-14.480469 19.476563-19.476563-7.828125-4.996093-14.480469-11.648437-19.476563-19.476562-4.996093 7.828125-11.648437 14.480469-19.476562 19.476562zm57.234375 7.960938c.003906.003906.007813.003906.011719.003906-.003906 0-.007813 0-.011719-.003906zm0 0"/><path d="m51.695312 157.089844c-5.347656 0-10.035156-3.664063-11.394531-8.910156-3.984375-15.378907-16.011719-27.40625-31.386719-31.390626-5.25-1.355468-8.914062-6.042968-8.914062-11.394531 0-5.351562 3.664062-10.035156 8.910156-11.394531 15.378906-3.984375 27.40625-16.011719 31.390625-31.390625 1.359375-5.246094 6.046875-8.910156 11.394531-8.910156 5.351563 0 10.039063 3.664062 11.398438 8.910156 3.980469 15.378906 16.011719 27.40625 31.386719 31.390625 5.25 1.359375 8.914062 6.042969 8.914062 11.394531 0 5.347657-3.664062 10.035157-8.910156 11.394531-15.382813 3.984376-27.410156 16.011719-31.390625 31.390626-1.359375 5.246093-6.046875 8.910156-11.398438 8.910156zm-19.476562-51.695313c7.832031 4.996094 14.480469 11.648438 19.476562 19.476563 4.996094-7.828125 11.648438-14.480469 19.480469-19.476563-7.832031-4.996093-14.480469-11.648437-19.480469-19.476562-4.996093 7.828125-11.644531 14.480469-19.476562 19.476562zm57.234375 7.960938c.003906.003906.007813.003906.015625.003906-.007812 0-.011719 0-.015625-.003906zm0 0"/></svg>