<svg height="512pt" viewBox="-18 0 511 512" width="512pt" xmlns="http://www.w3.org/2000/svg"><path d="m82 228.363281c-24.792969 0-44.964844 20.171875-44.964844 44.964844s20.171875 44.964844 44.964844 44.964844 44.964844-20.171875 44.964844-44.964844-20.171875-44.964844-44.964844-44.964844zm0 69.929688c-10.550781 0-19.597656-6.582031-23.242188-15.855469h9.316407c5.523437 0 10-4.476562 10-10s-4.476563-10-10-10h-8.535157c4.050782-8.324219 12.597657-14.074219 22.460938-14.074219 13.765625 0 24.964844 11.199219 24.964844 24.964844s-11.199219 24.964844-24.964844 24.964844zm0 0"/><path d="m192.539062 228.363281c-24.792968 0-44.964843 20.171875-44.964843 44.964844s20.171875 44.964844 44.964843 44.964844c24.796876 0 44.96875-20.171875 44.96875-44.964844s-20.171874-44.964844-44.96875-44.964844zm0 69.929688c-10.550781 0-19.59375-6.582031-23.242187-15.855469h7.777344c5.523437 0 10-4.476562 10-10s-4.476563-10-10-10h-6.996094c4.054687-8.324219 12.597656-14.074219 22.460937-14.074219 13.769532 0 24.96875 11.199219 24.96875 24.964844s-11.199218 24.964844-24.96875 24.964844zm0 0"/><path d="m175.675781 449.441406c-.652343 0-1.3125-.070312-1.949219-.199218-.640624-.132813-1.273437-.320313-1.871093-.570313-.609375-.25-1.191407-.5625-1.730469-.921875-.550781-.359375-1.058594-.777344-1.519531-1.238281-.460938-.460938-.878907-.972657-1.242188-1.519531-.367187-.542969-.667969-1.132813-.917969-1.730469-.25-.601563-.449218-1.230469-.582031-1.871094-.128906-.640625-.1875-1.300781-.1875-1.949219 0-.652344.058594-1.308594.1875-1.960937.132813-.628907.332031-1.257813.582031-1.871094.25-.597656.550782-1.179687.917969-1.71875.363281-.550781.78125-1.058594 1.242188-1.519531.460937-.460938.96875-.878906 1.519531-1.25.539062-.359375 1.121094-.671875 1.730469-.921875.597656-.25 1.230469-.4375 1.871093-.566407 1.289063-.261718 2.609376-.261718 3.898438 0 .640625.128907 1.269531.316407 1.867188.566407.613281.25 1.191406.5625 1.730468.921875.550782.371094 1.0625.789062 1.519532 1.25.460937.460937.882812.96875 1.242187 1.519531.359375.539063.667969 1.121094.917969 1.71875.25.613281.441406 1.242187.570312 1.871094.132813.652343.203125 1.3125.203125 1.960937 0 .648438-.070312 1.308594-.203125 1.949219-.128906.640625-.320312 1.269531-.570312 1.871094-.25.597656-.558594 1.1875-.917969 1.730469-.359375.546874-.78125 1.058593-1.242187 1.519531-.457032.460937-.96875.878906-1.519532 1.238281-.539062.359375-1.117187.671875-1.730468.921875-.597657.25-1.226563.4375-1.867188.570313-.640625.128906-1.300781.199218-1.949219.199218zm0 0"/><path d="m282.910156 102.558594c-24.796875 0-44.964844 20.171875-44.964844 44.964844 0 24.792968 20.167969 44.964843 44.964844 44.964843 24.792969 0 44.964844-20.171875 44.964844-44.964843-.003906-24.792969-20.171875-44.964844-44.964844-44.964844zm0 69.929687c-10.554687 0-19.597656-6.582031-23.246094-15.855469h9.320313c5.523437 0 10-4.476562 10-10 0-5.523437-4.476563-10-10-10h-8.539063c4.054688-8.324218 12.601563-14.074218 22.460938-14.074218 13.769531 0 24.964844 11.199218 24.964844 24.964844 0 13.765624-11.195313 24.964843-24.960938 24.964843zm0 0"/><path d="m393.449219 102.558594c-24.792969 0-44.964844 20.171875-44.964844 44.964844 0 24.792968 20.171875 44.964843 44.964844 44.964843s44.964843-20.171875 44.964843-44.964843c0-24.792969-20.171874-44.964844-44.964843-44.964844zm0 69.929687c-10.550781 0-19.59375-6.582031-23.242188-15.855469h7.777344c5.523437 0 10-4.476562 10-10 0-5.523437-4.476563-10-10-10h-6.996094c4.050781-8.324218 12.597657-14.074218 22.460938-14.074218 13.765625 0 24.964843 11.199218 24.964843 24.964844 0 13.765624-11.199218 24.964843-24.964843 24.964843zm0 0"/><path d="m376.585938 323.628906c-.652344 0-1.3125-.070312-1.960938-.1875-.632812-.132812-1.261719-.332031-1.871094-.582031-.601562-.238281-1.179687-.550781-1.71875-.910156-.550781-.367188-1.0625-.789063-1.519531-1.25-1.863281-1.859375-2.933594-4.429688-2.933594-7.066407 0-.652343.0625-1.3125.191407-1.953124.128906-.640626.320312-1.269532.570312-1.867188.25-.609375.558594-1.191406.917969-1.730469.371093-.550781.792969-1.0625 1.25-1.519531.460937-.460938.972656-.882812 1.519531-1.242188.542969-.359374 1.121094-.667968 1.722656-.917968.609375-.25 1.238282-.441406 1.867188-.570313 1.292968-.261719 2.621094-.261719 3.910156 0 .644531.128907 1.273438.320313 1.871094.570313.609375.25 1.191406.558594 1.730468.917968.550782.359376 1.058594.78125 1.519532 1.242188.460937.457031.878906.96875 1.242187 1.519531.359375.539063.667969 1.121094.917969 1.730469.25.597656.441406 1.226562.570312 1.867188.128907.640624.199219 1.300781.199219 1.953124 0 2.636719-1.070312 5.207032-2.929687 7.066407s-4.4375 2.929687-7.066406 2.929687zm0 0"/><path d="m338.179688 0c-75.414063 0-136.773438 61.355469-136.773438 136.769531v5.027344c-19.136719-10.203125-40.972656-15.992187-64.136719-15.992187-75.414062 0-136.769531 61.355468-136.769531 136.769531v236.671875c0 4.253906 2.6875 8.039062 6.699219 9.441406 4.015625 1.40625 8.476562.117188 11.125-3.210938 7.886719-9.90625 19.667969-15.648437 32.328125-15.753906h.359375c12.523437 0 24.257812 5.53125 32.230469 15.210938l2.824218 3.425781c1.898438 2.304687 4.730469 3.640625 7.71875 3.640625 2.984375 0 5.816406-1.335938 7.71875-3.640625l3.511719-4.265625c7.964844-9.667969 19.714844-15.210938 32.242187-15.210938 12.523438 0 24.273438 5.542969 32.238282 15.210938l3.515625 4.265625c1.898437 2.304687 4.726562 3.640625 7.714843 3.640625 2.988282 0 5.820313-1.335938 7.71875-3.640625l2.832032-3.4375c7.976562-9.679687 19.707031-15.210937 32.234375-15.210937h.351562c12.660157.105468 24.441407 5.847656 32.328125 15.75.023438.023437.066406.078124.089844.105468 2.667969 3.285156 7.117188 4.53125 11.105469 3.117188 3.988281-1.417969 6.652343-5.191406 6.652343-9.425782v-129.339843c3.625 2.347656 6.976563 5.40625 10.113282 9.210937l2.820312 3.425782c1.898438 2.304687 4.730469 3.640624 7.71875 3.640624 2.988282 0 5.820313-1.335937 7.71875-3.640624l3.515625-4.265626c7.960938-9.667968 19.714844-15.210937 32.238281-15.210937 12.523438 0 24.273438 5.542969 32.238282 15.210937l3.515625 4.265626c1.898437 2.304687 4.730469 3.640624 7.71875 3.640624s5.816406-1.335937 7.71875-3.640624l2.832031-3.4375c7.972656-9.679688 19.703125-15.210938 32.230469-15.210938h.355469c12.65625.105469 24.441406 5.847656 32.296874 15.707031 2.625 3.363281 7.097657 4.6875 11.132813 3.296875s6.746094-5.183594 6.746094-9.453125v-236.6875c0-75.414062-61.355469-136.769531-136.769531-136.769531zm-84.140626 477.746094c-9.019531-5.128906-19.304687-7.945313-30.007812-8.03125-16.296875-.167969-31.65625 6.03125-43.222656 17.128906-11.527344-11.480469-27.085938-17.960938-43.554688-17.960938-16.464844 0-32.027344 6.480469-43.554687 17.964844-11.4375-10.972656-26.621094-17.125-42.6875-17.125-.175781 0-.351563 0-.527344.003906-10.695313.089844-20.96875 2.898438-29.984375 8.023438v-28.3125h117.175781c5.523438 0 10-4.476562 10-10s-4.476562-10-10-10h-117.175781v-166.863281c0-64.386719 52.382812-116.769531 116.769531-116.769531 64.390625 0 116.773438 52.382812 116.773438 116.769531v215.171875zm200.910157-125.804688c-9.023438-5.132812-19.304688-7.945312-30.011719-8.03125-.175781-.003906-.347656-.003906-.519531-.003906-16.070313 0-31.257813 6.15625-42.699219 17.132812-11.527344-11.480468-27.085938-17.960937-43.554688-17.960937-16.445312 0-31.988281 6.464844-43.511718 17.921875-6.128906-6.039062-13.027344-10.503906-20.609375-13.34375v-24.023438h64.542969c5.523437 0 10-4.476562 10-10 0-5.523437-4.476563-10-10-10h-64.542969v-41.058593c0-43.714844-20.617188-82.703125-52.632813-107.757813v-18.046875c0-64.386719 52.378906-116.769531 116.769532-116.769531 64.386718 0 116.769531 52.382812 116.769531 116.769531zm0 0"/></svg>