<svg height="512pt" viewBox="0 -36 512 512" width="512pt" xmlns="http://www.w3.org/2000/svg"><path d="m385.519531 163.09375c-.660156 0-1.308593-.0625-1.960937-.191406-.636719-.128906-1.269532-.320313-1.867188-.570313-.601562-.25-1.179687-.558593-1.730468-.921875-.539063-.367187-1.0625-.789062-1.519532-1.25-1.859375-1.855468-2.929687-4.4375-2.929687-7.066406 0-.652344.066406-1.3125.199219-1.949219.128906-.640625.320312-1.273437.570312-1.871093.25-.609376.558594-1.191407.917969-1.730469.359375-.550781.78125-1.058594 1.238281-1.519531.460938-.460938.980469-.878907 1.523438-1.242188.546874-.355469 1.128906-.667969 1.726562-.917969.601562-.25 1.230469-.4375 1.871094-.570312 3.25-.660157 6.699218.410156 9.03125 2.730469.460937.460937.878906.96875 1.238281 1.519531.359375.539062.671875 1.121093.921875 1.730469.25.597656.4375 1.230468.566406 1.871093.132813.636719.203125 1.296875.203125 1.949219 0 2.628906-1.070312 5.210938-2.929687 7.066406-1.859375 1.871094-4.441406 2.933594-7.070313 2.933594zm0 0"/><path d="m394.625 103.394531c-5.347656 0-10.035156-3.664062-11.394531-8.90625-3.984375-15.382812-16.011719-27.410156-31.390625-31.394531-5.246094-1.359375-8.914063-6.046875-8.914063-11.394531 0-5.351563 3.667969-10.039063 8.914063-11.398438 15.378906-3.980469 27.40625-16.011719 31.386718-31.386719 1.363282-5.25 6.050782-8.914062 11.398438-8.914062s10.035156 3.664062 11.394531 8.90625c3.984375 15.382812 16.011719 27.414062 31.390625 31.394531 5.246094 1.359375 8.914063 6.046875 8.914063 11.398438 0 5.347656-3.667969 10.035156-8.914063 11.394531-15.378906 3.984375-27.40625 16.011719-31.386718 31.386719-1.363282 5.25-6.050782 8.914062-11.398438 8.914062zm-19.476562-51.695312c7.828124 4.992187 14.480468 11.648437 19.476562 19.476562 4.996094-7.828125 11.648438-14.480469 19.476562-19.476562-7.828124-4.996094-14.480468-11.648438-19.476562-19.476563-4.996094 7.828125-11.648438 14.480469-19.476562 19.476563zm57.226562 7.960937c.007812 0 .015625 0 .019531.003906-.003906-.003906-.011719-.003906-.019531-.003906zm0 0"/><path d="m323.828125 440.867188c-5.347656 0-10.035156-3.667969-11.394531-8.914063-3.984375-15.378906-16.011719-27.40625-31.386719-31.390625-5.25-1.359375-8.914063-6.042969-8.914063-11.394531 0-5.351563 3.664063-10.035157 8.910157-11.394531 15.378906-3.984376 27.40625-16.011719 31.390625-31.390626 1.359375-5.246093 6.046875-8.910156 11.394531-8.910156 5.351563 0 10.039063 3.664063 11.398437 8.910156 3.980469 15.378907 16.007813 27.40625 31.386719 31.390626 5.25 1.359374 8.914063 6.042968 8.914063 11.394531 0 5.351562-3.664063 10.035156-8.914063 11.394531-15.378906 3.984375-27.40625 16.011719-31.386719 31.390625-1.359374 5.246094-6.046874 8.914063-11.398437 8.914063zm-19.476563-51.699219c7.828126 4.996093 14.484376 11.648437 19.476563 19.476562 4.996094-7.828125 11.648437-14.480469 19.480469-19.476562-7.832032-4.996094-14.484375-11.648438-19.480469-19.476563-4.992187 7.828125-11.644531 14.480469-19.476563 19.476563zm0 0"/><path d="m157.613281 382.8125c-86.910156 0-157.613281-70.707031-157.613281-157.613281 0-86.910157 70.703125-157.613281 157.613281-157.613281 46.816407 0 90.90625 20.617187 120.964844 56.566406 3.445313 4.117187 3.023437 10.21875-.953125 13.824218l-96.214844 87.222657 96.214844 87.21875c3.976562 3.605469 4.398438 9.707031.953125 13.824219-30.058594 35.949218-74.148437 56.570312-120.964844 56.570312zm0-295.226562c-75.878906 0-137.613281 61.730468-137.613281 137.613281 0 75.878906 61.734375 137.613281 137.613281 137.613281 37.664063 0 73.3125-15.289062 99.214844-42.25l-97.023437-87.957031c-2.089844-1.894531-3.28125-4.585938-3.28125-7.40625 0-2.824219 1.191406-5.515625 3.28125-7.410157l97.023437-87.953124c-25.902344-26.964844-61.550781-42.25-99.214844-42.25zm0 0"/><path d="m427.667969 163.097656h74.332031c5.523438 0 10-4.480468 10-10 0-5.523437-4.476562-10-10-10h-74.332031c-5.523438 0-10 4.476563-10 10 0 5.519532 4.476562 10 10 10zm0 0"/><path d="m502 287.300781h-252.085938l-68.503906-62.105469 68.507813-62.101562c.027343 0 .054687.003906.082031.003906h88.335938c5.519531 0 10-4.480468 10-10 0-5.523437-4.480469-10-10-10h-66.359376l5.648438-5.121094c3.976562-3.605468 4.398438-9.707031.957031-13.824218-30.0625-35.949219-74.152343-56.566406-120.96875-56.566406-86.910156 0-157.613281 70.703124-157.613281 157.613281 0 86.90625 70.703125 157.613281 157.613281 157.613281 46.816407 0 90.90625-20.621094 120.964844-56.570312 3.445313-4.117188 3.023437-10.21875-.953125-13.824219l-5.648438-5.117188h230.023438c5.523438 0 10-4.480469 10-10 0-5.523437-4.476562-10-10-10zm-344.386719 75.511719c-75.878906 0-137.613281-61.734375-137.613281-137.613281 0-75.882813 61.734375-137.613281 137.613281-137.613281 37.664063 0 73.3125 15.285156 99.214844 42.25l-97.023437 87.953124c-2.089844 1.894532-3.28125 4.585938-3.28125 7.410157 0 2.820312 1.191406 5.511719 3.28125 7.40625l97.023437 87.957031c-25.902344 26.960938-61.550781 42.25-99.214844 42.25zm0 0"/><path d="m148.34375 186.308594c-17.121094 0-31.046875-13.925782-31.046875-31.046875 0-17.117188 13.925781-31.042969 31.046875-31.042969 17.117188 0 31.042969 13.925781 31.042969 31.042969 0 17.121093-13.925781 31.046875-31.042969 31.046875zm0-42.089844c-6.089844 0-11.046875 4.953125-11.046875 11.042969 0 6.089843 4.957031 11.046875 11.046875 11.046875s11.042969-4.957032 11.042969-11.046875c0-6.089844-4.953125-11.042969-11.042969-11.042969zm0 0"/><path d="m266.597656 272.136719c-23.503906 0-42.625-19.121094-42.625-42.625 0-23.503907 19.121094-42.625 42.625-42.625 23.5 0 42.621094 19.121093 42.621094 42.625 0 23.503906-19.121094 42.625-42.621094 42.625zm0-65.25c-12.476562 0-22.625 10.148437-22.625 22.625 0 12.472656 10.148438 22.625 22.625 22.625 12.472656 0 22.621094-10.152344 22.621094-22.625 0-12.476563-10.148438-22.625-22.621094-22.625zm0 0"/><path d="m356.453125 272.136719c-23.503906 0-42.625-19.121094-42.625-42.625 0-23.503907 19.121094-42.625 42.625-42.625s42.625 19.121093 42.625 42.625c0 23.503906-19.121094 42.625-42.625 42.625zm0-65.25c-12.472656 0-22.625 10.148437-22.625 22.625 0 12.472656 10.152344 22.625 22.625 22.625 12.476563 0 22.625-10.152344 22.625-22.625 0-12.476563-10.148437-22.625-22.625-22.625zm0 0"/><path d="m446.3125 272.136719c-23.503906 0-42.625-19.121094-42.625-42.625 0-23.503907 19.121094-42.625 42.625-42.625s42.625 19.121093 42.625 42.625c0 23.503906-19.121094 42.625-42.625 42.625zm0-65.25c-12.472656 0-22.625 10.148437-22.625 22.625 0 12.472656 10.152344 22.625 22.625 22.625 12.476562 0 22.625-10.152344 22.625-22.625 0-12.476563-10.148438-22.625-22.625-22.625zm0 0"/></svg>